          <svg
            xmlns="http://www.w3.org/2000/svg"
            width="88.5"
            height="105.274"
            viewBox="0 0 88.5 105.274"
          >
            <g id="notes" transform="translate(-442.794 -39)">
              <path
                id="music-note-1"
                d="M16.538,12.173V27.328m0-15.154V6.948a1.807,1.807,0,0,1,.055-.63A.788.788,0,0,1,16.821,6a1.809,1.809,0,0,1,.58-.251l6.938-2.313A2.22,2.22,0,0,1,25.4,3.215a.789.789,0,0,1,.473.341A2.221,2.221,0,0,1,26,4.636V9.861a1.807,1.807,0,0,1-.055.63.788.788,0,0,1-.228.316,1.809,1.809,0,0,1-.58.251L18.2,13.37a2.22,2.22,0,0,1-1.064.224.789.789,0,0,1-.473-.341A2.221,2.221,0,0,1,16.538,12.173Zm0,15.154c0,2.177-2.471,3.942-5.519,3.942S5.5,29.5,5.5,27.328s2.471-3.942,5.519-3.942S16.538,25.15,16.538,27.328Z"
                transform="translate(489.544 86.73)"
                fill="none"
                stroke="#fff"
                stroke-linecap="round"
                stroke-linejoin="round"
                stroke-width="3"
              />
              <path
                id="music-note-1-2"
                data-name="music-note-1"
                d="M16.538,12.173V27.328m0-15.154V6.948a1.807,1.807,0,0,1,.055-.63A.788.788,0,0,1,16.821,6a1.809,1.809,0,0,1,.58-.251l6.938-2.313A2.22,2.22,0,0,1,25.4,3.215a.789.789,0,0,1,.473.341A2.221,2.221,0,0,1,26,4.636V9.861a1.807,1.807,0,0,1-.055.63.788.788,0,0,1-.228.316,1.809,1.809,0,0,1-.58.251L18.2,13.37a2.22,2.22,0,0,1-1.064.224.789.789,0,0,1-.473-.341A2.221,2.221,0,0,1,16.538,12.173Zm0,15.154c0,2.177-2.471,3.942-5.519,3.942S5.5,29.5,5.5,27.328s2.471-3.942,5.519-3.942S16.538,25.15,16.538,27.328Z"
                transform="translate(455.431 62.23)"
                fill="none"
                stroke="#fff"
                stroke-linecap="round"
                stroke-linejoin="round"
                stroke-width="3"
              />
              <g id="music-icon">
                <ellipse
                  id="Ellipse_6"
                  data-name="Ellipse 6"
                  cx="5"
                  cy="3"
                  rx="5"
                  ry="3"
                  transform="translate(467 132)"
                  fill="#fff"
                />
                <ellipse
                  id="Ellipse_7"
                  data-name="Ellipse 7"
                  cx="5"
                  cy="3"
                  rx="5"
                  ry="3"
                  transform="translate(445 136)"
                  fill="#fff"
                />
                <path
                  id="music-note-2"
                  d="M14.091,32.577c0,2.042-2.483,3.7-5.546,3.7S3,34.619,3,32.577s2.483-3.7,5.546-3.7S14.091,30.535,14.091,32.577Zm0,0V6.7L36.274,3V28.88m0,0c0,2.042-2.483,3.7-5.546,3.7s-5.546-1.655-5.546-3.7,2.483-3.7,5.546-3.7S36.274,26.838,36.274,28.88ZM14.091,14.091l22.183-3.7"
                  transform="translate(441.294 106.5)"
                  fill="none"
                  stroke="#fff"
                  stroke-linecap="round"
                  stroke-linejoin="round"
                  stroke-width="3"
                />
              </g>
              <g
                id="music-icon-2"
                data-name="music-icon"
                transform="translate(52 -69)"
              >
                <ellipse
                  id="Ellipse_6-2"
                  data-name="Ellipse 6"
                  cx="5"
                  cy="3"
                  rx="5"
                  ry="3"
                  transform="translate(467 132)"
                  fill="#fff"
                />
                <ellipse
                  id="Ellipse_7-2"
                  data-name="Ellipse 7"
                  cx="5"
                  cy="3"
                  rx="5"
                  ry="3"
                  transform="translate(445 136)"
                  fill="#fff"
                />
                <path
                  id="music-note-2-2"
                  data-name="music-note-2"
                  d="M14.091,32.577c0,2.042-2.483,3.7-5.546,3.7S3,34.619,3,32.577s2.483-3.7,5.546-3.7S14.091,30.535,14.091,32.577Zm0,0V6.7L36.274,3V28.88m0,0c0,2.042-2.483,3.7-5.546,3.7s-5.546-1.655-5.546-3.7,2.483-3.7,5.546-3.7S36.274,26.838,36.274,28.88ZM14.091,14.091l22.183-3.7"
                  transform="translate(441.294 106.5)"
                  fill="none"
                  stroke="#fff"
                  stroke-linecap="round"
                  stroke-linejoin="round"
                  stroke-width="3"
                />
              </g>
            </g>
          </svg>