<svg xmlns="http://www.w3.org/2000/svg" width="1026" height="1024.067" viewBox="0 0 1026 1024.067">
  <path id="bg-ellipse" d="M557.812,1024.067v0a510.938,510.938,0,0,0,198.137-59.138c-12.216,6.582-24.83,12.728-37.49,18.268-14.347,6.279-29.154,11.958-44.009,16.88-15.009,4.973-30.434,9.294-45.848,12.845-15.6,3.593-31.57,6.484-47.471,8.595C573.453,1022.534,565.607,1023.393,557.812,1024.067Zm336.56-167.961h0c7.238-8.042,14.313-16.419,21.029-24.9-3.146,3.977-6.389,7.951-9.637,11.813C902.073,847.407,898.241,851.81,894.372,856.106ZM993.532,693H32.467c-5.252-14.015-9.938-28.431-13.928-42.847-4.033-14.572-7.457-29.511-10.177-44.405-2.752-15.071-4.852-30.473-6.241-45.779C.714,544.461,0,528.658,0,513a521.267,521.267,0,0,1,2.648-52.451,514.309,514.309,0,0,1,7.774-50.936c3.382-16.527,7.635-33.067,12.641-49.163,4.95-15.915,10.754-31.773,17.251-47.132,6.437-15.218,13.7-30.306,21.6-44.844,7.841-14.434,16.486-28.664,25.7-42.3,9.165-13.566,19.1-26.853,29.532-39.492,10.4-12.608,21.544-24.865,33.11-36.43s23.821-22.7,36.43-33.11c12.64-10.431,25.927-20.367,39.493-29.532,13.63-9.209,27.861-17.854,42.3-25.7,14.538-7.9,29.626-15.166,44.844-21.6,15.36-6.5,31.218-12.3,47.132-17.251,16.1-5.007,32.638-9.26,49.163-12.641a514.3,514.3,0,0,1,50.936-7.774,520.676,520.676,0,0,1,104.9,0,514.3,514.3,0,0,1,50.936,7.774c16.526,3.382,33.067,7.635,49.163,12.641,15.914,4.95,31.772,10.754,47.132,17.251,15.218,6.437,30.305,13.7,44.844,21.6,14.436,7.842,28.667,16.488,42.3,25.7,13.565,9.164,26.852,19.1,39.492,29.532,12.609,10.406,24.866,21.546,36.43,33.11s22.7,23.822,33.11,36.43c10.431,12.639,20.367,25.926,29.532,39.492,9.21,13.632,17.855,27.863,25.7,42.3,7.9,14.538,15.166,29.626,21.6,44.844,6.5,15.359,12.3,31.217,17.251,47.132,5.006,16.1,9.259,32.637,12.641,49.163a514.317,514.317,0,0,1,7.774,50.936A521.264,521.264,0,0,1,1026,513c0,15.659-.714,31.461-2.122,46.969-1.389,15.306-3.489,30.708-6.241,45.779-2.72,14.892-6.144,29.833-10.177,44.405-3.991,14.417-8.677,28.833-13.928,42.845h0v0Z" transform="translate(0 0)" fill="#3bcdca"/>
</svg>
