<svg xmlns="http://www.w3.org/2000/svg" xmlns:xlink="http://www.w3.org/1999/xlink" width="1017.938" height="1017.938" viewBox="0 0 1017.938 1017.938">
  <defs>
    <linearGradient id="linear-gradient" x1="0.173" y1="0.886" x2="0.828" y2="0.092" gradientUnits="objectBoundingBox">
      <stop offset="0" stop-color="#a900ff" stop-opacity="0.161"/>
      <stop offset="1" stop-color="#3bcdca"/>
    </linearGradient>
    <filter id="bg-round-2">
      <feOffset dx="3" dy="3" input="SourceAlpha"/>
      <feGaussianBlur stdDeviation="7.5" result="blur"/>
      <feFlood flood-opacity="0.161" result="color"/>
      <feComposite operator="out" in="SourceGraphic" in2="blur"/>
      <feComposite operator="in" in="color"/>
      <feComposite operator="in" in2="SourceGraphic"/>
    </filter>
    <filter id="bg-round-1">
      <feOffset dx="3" dy="3" input="SourceAlpha"/>
      <feGaussianBlur stdDeviation="7.5" result="blur-2"/>
      <feFlood flood-opacity="0.161" result="color-2"/>
      <feComposite operator="out" in="SourceGraphic" in2="blur-2"/>
      <feComposite operator="in" in="color-2"/>
      <feComposite operator="in" in2="SourceGraphic"/>
    </filter>
    <filter id="bg-round-3">
      <feOffset dx="3" dy="3" input="SourceAlpha"/>
      <feGaussianBlur stdDeviation="7.5" result="blur-3"/>
      <feFlood flood-opacity="0.161" result="color-3"/>
      <feComposite operator="out" in="SourceGraphic" in2="blur-3"/>
      <feComposite operator="in" in="color-3"/>
      <feComposite operator="in" in2="SourceGraphic"/>
    </filter>
  </defs>
  <g id="bg-stripes" transform="translate(-798.635 -805.003)">
    <g data-type="innerShadowGroup">
      <path id="bg-round-2-2" data-name="bg-round-2" d="M385.5,771a391.656,391.656,0,0,1-39.415-1.99A384.924,384.924,0,0,1,1.99,424.915a391.276,391.276,0,0,1,0-78.83A384.923,384.923,0,0,1,346.085,1.99a391.276,391.276,0,0,1,78.83,0,384.922,384.922,0,0,1,344.1,344.094,391.277,391.277,0,0,1,0,78.83,384.924,384.924,0,0,1-344.1,344.1A391.656,391.656,0,0,1,385.5,771ZM386,53C202.383,53,53,202.383,53,386S202.383,719,386,719,719,569.617,719,386,569.617,53,386,53Z" transform="matrix(0.914, -0.407, 0.407, 0.914, 798.635, 1118.597)" fill="url(#linear-gradient)"/>
      <g transform="matrix(1, 0, 0, 1, 798.63, 805)" filter="url(#bg-round-2)">
        <path id="bg-round-2-3" data-name="bg-round-2" d="M385.5,771a391.656,391.656,0,0,1-39.415-1.99A384.924,384.924,0,0,1,1.99,424.915a391.276,391.276,0,0,1,0-78.83A384.923,384.923,0,0,1,346.085,1.99a391.276,391.276,0,0,1,78.83,0,384.922,384.922,0,0,1,344.1,344.094,391.277,391.277,0,0,1,0,78.83,384.924,384.924,0,0,1-344.1,344.1A391.656,391.656,0,0,1,385.5,771ZM386,53C202.383,53,53,202.383,53,386S202.383,719,386,719,719,569.617,719,386,569.617,53,386,53Z" transform="matrix(0.91, -0.41, 0.41, 0.91, 0, 313.59)" fill="#fff"/>
      </g>
    </g>
    <g data-type="innerShadowGroup">
      <path id="bg-round-1-2" data-name="bg-round-1" d="M301.5,603a306.312,306.312,0,0,1-30.827-1.557A301.05,301.05,0,0,1,1.557,332.326a306.018,306.018,0,0,1,0-61.653A301.049,301.049,0,0,1,270.673,1.557a306.018,306.018,0,0,1,61.653,0A301.048,301.048,0,0,1,601.444,270.673a306.013,306.013,0,0,1,0,61.653A301.049,301.049,0,0,1,332.326,601.444,306.314,306.314,0,0,1,301.5,603Zm.391-561.549c-143.607,0-260.44,116.833-260.44,260.44s116.833,260.44,260.44,260.44,260.44-116.833,260.44-260.44S445.5,41.452,301.891,41.452Z" transform="matrix(-0.695, 0.719, -0.719, -0.695, 1733.924, 1306.531)" fill="url(#linear-gradient)"/>
      <g transform="matrix(1, 0, 0, 1, 798.63, 805)" filter="url(#bg-round-1)">
        <path id="bg-round-1-3" data-name="bg-round-1" d="M301.5,603a306.312,306.312,0,0,1-30.827-1.557A301.05,301.05,0,0,1,1.557,332.326a306.018,306.018,0,0,1,0-61.653A301.049,301.049,0,0,1,270.673,1.557a306.018,306.018,0,0,1,61.653,0A301.048,301.048,0,0,1,601.444,270.673a306.013,306.013,0,0,1,0,61.653A301.049,301.049,0,0,1,332.326,601.444,306.314,306.314,0,0,1,301.5,603Zm.391-561.549c-143.607,0-260.44,116.833-260.44,260.44s116.833,260.44,260.44,260.44,260.44-116.833,260.44-260.44S445.5,41.452,301.891,41.452Z" transform="matrix(-0.69, 0.72, -0.72, -0.69, 935.29, 501.53)" fill="#fff"/>
      </g>
    </g>
    <g data-type="innerShadowGroup">
      <path id="bg-round-3-2" data-name="bg-round-3" d="M252.5,505a256.521,256.521,0,0,1-25.817-1.3A252.123,252.123,0,0,1,1.3,278.317a256.283,256.283,0,0,1,0-51.633A252.122,252.122,0,0,1,226.683,1.3a256.283,256.283,0,0,1,51.633,0A252.121,252.121,0,0,1,503.7,226.683a256.28,256.28,0,0,1,0,51.633A252.122,252.122,0,0,1,278.317,503.7,256.523,256.523,0,0,1,252.5,505Zm.328-470.286c-120.268,0-218.113,97.845-218.113,218.113S132.56,470.941,252.828,470.941,470.941,373.1,470.941,252.828,373.1,34.715,252.828,34.715Z" transform="matrix(0.978, -0.208, 0.208, 0.978, 1040.123, 1119.487)" fill="url(#linear-gradient)"/>
      <g transform="matrix(1, 0, 0, 1, 798.63, 805)" filter="url(#bg-round-3)">
        <path id="bg-round-3-3" data-name="bg-round-3" d="M252.5,505a256.521,256.521,0,0,1-25.817-1.3A252.123,252.123,0,0,1,1.3,278.317a256.283,256.283,0,0,1,0-51.633A252.122,252.122,0,0,1,226.683,1.3a256.283,256.283,0,0,1,51.633,0A252.121,252.121,0,0,1,503.7,226.683a256.28,256.28,0,0,1,0,51.633A252.122,252.122,0,0,1,278.317,503.7,256.523,256.523,0,0,1,252.5,505Zm.328-470.286c-120.268,0-218.113,97.845-218.113,218.113S132.56,470.941,252.828,470.941,470.941,373.1,470.941,252.828,373.1,34.715,252.828,34.715Z" transform="matrix(0.98, -0.21, 0.21, 0.98, 241.49, 314.48)" fill="#fff"/>
      </g>
    </g>
  </g>
</svg>
