<svg xmlns="http://www.w3.org/2000/svg" width="23.5" height="31.055" viewBox="0 0 23.5 31.055">
  <path id="music-note-1" d="M16.538,12.173V27.328m0-15.154V6.948a1.807,1.807,0,0,1,.055-.63A.788.788,0,0,1,16.821,6a1.809,1.809,0,0,1,.58-.251l6.938-2.313A2.22,2.22,0,0,1,25.4,3.215a.789.789,0,0,1,.473.341A2.221,2.221,0,0,1,26,4.636V9.861a1.807,1.807,0,0,1-.055.63.788.788,0,0,1-.228.316,1.809,1.809,0,0,1-.58.251L18.2,13.37a2.22,2.22,0,0,1-1.064.224.789.789,0,0,1-.473-.341A2.221,2.221,0,0,1,16.538,12.173Zm0,15.154c0,2.177-2.471,3.942-5.519,3.942S5.5,29.5,5.5,27.328s2.471-3.942,5.519-3.942S16.538,25.15,16.538,27.328Z" transform="translate(-4 -1.714)" fill="none" stroke="#fff" stroke-linecap="round" stroke-linejoin="round" stroke-width="3"/>
</svg>
