<svg xmlns="http://www.w3.org/2000/svg" width="14.56" height="18.72" viewBox="0 0 14.56 18.72">
  <path id="pause" d="M5.17,3.852A3.882,3.882,0,0,0,5,5.5V19.224a3.887,3.887,0,0,0,.17,1.644,1.56,1.56,0,0,0,.682.681A3.86,3.86,0,0,0,7.5,21.72H7.7a3.887,3.887,0,0,0,1.644-.17,1.56,1.56,0,0,0,.682-.682,3.882,3.882,0,0,0,.17-1.644V5.5a3.887,3.887,0,0,0-.17-1.644,1.56,1.56,0,0,0-.682-.682A3.882,3.882,0,0,0,7.7,3H7.5a3.887,3.887,0,0,0-1.644.17,1.56,1.56,0,0,0-.682.682Zm9.36,0A3.882,3.882,0,0,0,14.36,5.5V19.224a3.865,3.865,0,0,0,.171,1.644,1.56,1.56,0,0,0,.681.681,3.86,3.86,0,0,0,1.644.171h.208a3.887,3.887,0,0,0,1.644-.17,1.56,1.56,0,0,0,.681-.682,3.86,3.86,0,0,0,.171-1.644V5.5a3.887,3.887,0,0,0-.17-1.644,1.56,1.56,0,0,0-.682-.682A3.882,3.882,0,0,0,17.064,3h-.208a3.887,3.887,0,0,0-1.644.17,1.56,1.56,0,0,0-.681.682Z" transform="translate(-5 -3)" fill="#2f2f2f" fill-rule="evenodd"/>
</svg>
