<svg xmlns="http://www.w3.org/2000/svg" viewBox="0 0 22 19">
  <g id="sound-svgrepo-com" transform="translate(0 0.259)">
    <path id="Union_1" data-name="Union 1" d="M9.387,18.3,5.495,13.741H3a2.813,2.813,0,0,1-3-2.576V7.731A2.813,2.813,0,0,1,3,5.155H5.5L9.4.69C10.553-.63,13,.07,13,1.72V17.28A1.875,1.875,0,0,1,10.98,19,2.066,2.066,0,0,1,9.387,18.3Z" transform="translate(0 -0.259)" fill="#2f2f2f"/>
    <path id="Path_2" data-name="Path 2" d="M16.214,3.97A.892.892,0,0,1,17.2,3a.929.929,0,0,1,.95.651A35.958,35.958,0,0,1,19,10.435a35.959,35.959,0,0,1-.854,6.784.929.929,0,0,1-.95.651.892.892,0,0,1-.982-.97A35.062,35.062,0,0,0,17,10.435,35.061,35.061,0,0,0,16.214,3.97Z" transform="translate(-1 -1.244)" fill="#2f2f2f"/>
    <path id="Path_3" data-name="Path 3" d="M21.41,5c-.675,0-1.17.539-1.013,1.049a15.042,15.042,0,0,1,.6,4.386,15.041,15.041,0,0,1-.6,4.386c-.156.51.338,1.049,1.013,1.049a.839.839,0,0,0,.8-.426A13.04,13.04,0,0,0,23,10.435a13.039,13.039,0,0,0-.79-5.009A.839.839,0,0,0,21.41,5Z" transform="translate(-1 -1.244)" fill="#2f2f2f"/>
  </g>
</svg>
